<?xml version="1.0" encoding="UTF-8" standalone="no"?>
<!DOCTYPE svg PUBLIC "-//W3C//DTD SVG 1.1//EN" "http://www.w3.org/Graphics/SVG/1.1/DTD/svg11.dtd">
<!-- Created with Vectornator (http://vectornator.io/) -->
<svg height="100%" stroke-miterlimit="10" style="fill-rule:nonzero;clip-rule:evenodd;stroke-linecap:round;stroke-linejoin:round;" version="1.1" viewBox="0 0 16 16" width="100%" xml:space="preserve" xmlns="http://www.w3.org/2000/svg" xmlns:vectornator="http://vectornator.io" xmlns:xlink="http://www.w3.org/1999/xlink">
<defs/>
<g id="Слой-1" vectornator:layerName="Слой 1">
<path d="M4.4278 5.48796L12.5659 5.48796L11.5571 9.49149L5.22485 9.50812L4.4278 5.48796Z" fill="none" opacity="1" stroke="#dddddd" stroke-linecap="round" stroke-linejoin="round" stroke-width="1"/>
<path d="M2.52814 4.52517L4.23422 4.504L5.60892 11.3834L10.925 11.4099" fill="none" opacity="1" stroke="#dddddd" stroke-linecap="round" stroke-linejoin="round" stroke-width="1"/>
<path d="M10.3401 13.2352C10.3401 13.1318 10.4239 13.0479 10.5273 13.0479C10.6307 13.0479 10.7145 13.1318 10.7145 13.2352C10.7145 13.3386 10.6307 13.4224 10.5273 13.4224C10.4239 13.4224 10.3401 13.3386 10.3401 13.2352Z" fill="none" opacity="1" stroke="#dddddd" stroke-linecap="round" stroke-linejoin="round" stroke-width="1"/>
<path d="M5.93626 13.2493C5.93626 13.1459 6.02008 13.0621 6.12348 13.0621C6.22688 13.0621 6.3107 13.1459 6.3107 13.2493C6.3107 13.3527 6.22688 13.4365 6.12348 13.4365C6.02008 13.4365 5.93626 13.3527 5.93626 13.2493Z" fill="none" opacity="1" stroke="#dddddd" stroke-linecap="round" stroke-linejoin="round" stroke-width="1"/>
</g>
</svg>
